HIERARCHY
ROOT mixamorig:Hips
{
	OFFSET 0.000000 201.639420 0.000000
	CHANNELS 6 Xposition Yposition Zposition Xrotation Yrotation Zrotation
	JOINT mixamorig:Spine
	{
		OFFSET 0.006200 19.524994 -2.481800
		CHANNELS 3 Xrotation Yrotation Zrotation
		JOINT mixamorig:Spine1
		{
			OFFSET -0.000900 22.835007 -2.825400
			CHANNELS 3 Xrotation Yrotation Zrotation
			JOINT mixamorig:Spine2
			{
				OFFSET -0.020600 26.552490 -3.193300
				CHANNELS 3 Xrotation Yrotation Zrotation
				JOINT mixamorig:Neck
				{
					OFFSET -0.060000 30.701813 1.352200
					CHANNELS 3 Xrotation Yrotation Zrotation
					JOINT mixamorig:Head
					{
						OFFSET -0.087200 22.547607 3.670900
						CHANNELS 3 Xrotation Yrotation Zrotation
						JOINT mixamorig:HeadTop_End
						{
							OFFSET -0.830600 40.355194 7.893500
							CHANNELS 3 Xrotation Yrotation Zrotation
							End Site
							{
								OFFSET 0.000000 30.592346 0.000000
							}
						}
						JOINT mixamorig:RightEye
						{
							OFFSET -6.302100 18.118591 16.197100
							CHANNELS 3 Xrotation Yrotation Zrotation
							End Site
							{
								OFFSET 0.000000 30.592346 0.000000
							}
						}
						JOINT mixamorig:LeftEye
						{
							OFFSET 6.741500 18.382690 16.401899
							CHANNELS 3 Xrotation Yrotation Zrotation
							End Site
							{
								OFFSET 0.000000 30.592346 0.000000
							}
						}
					}
				}
				JOINT mixamorig:LeftShoulder
				{
					OFFSET 11.924900 18.230499 1.425400
					CHANNELS 3 Xrotation Yrotation Zrotation
					JOINT mixamorig:LeftArm
					{
						OFFSET 25.435989 -0.697632 -5.229300
						CHANNELS 3 Xrotation Yrotation Zrotation
						JOINT mixamorig:LeftForeArm
						{
							OFFSET 54.684776 0.000000 0.000000
							CHANNELS 3 Xrotation Yrotation Zrotation
							JOINT mixamorig:LeftHand
							{
								OFFSET 55.098175 0.000000 0.000000
								CHANNELS 3 Xrotation Yrotation Zrotation
								JOINT mixamorig:LeftHandMiddle1
								{
									OFFSET 23.369751 0.000000 0.000000
									CHANNELS 3 Xrotation Yrotation Zrotation
									JOINT mixamorig:LeftHandMiddle2
									{
										OFFSET 6.378677 0.000000 0.000000
										CHANNELS 3 Xrotation Yrotation Zrotation
										JOINT mixamorig:LeftHandMiddle3
										{
											OFFSET 6.148331 0.000000 0.000000
											CHANNELS 3 Xrotation Yrotation Zrotation
											JOINT mixamorig:LeftHandMiddle4
											{
												OFFSET 6.582504 0.000000 0.000000
												CHANNELS 3 Xrotation Yrotation Zrotation
												End Site
												{
													OFFSET -1.168900 6.395691 1.028606
												}
											}
										}
									}
								}
								JOINT mixamorig:LeftHandThumb1
								{
									OFFSET 7.235672 -3.848206 5.434273
									CHANNELS 3 Xrotation Yrotation Zrotation
									JOINT mixamorig:LeftHandThumb2
									{
										OFFSET 6.568451 -3.792297 3.792300
										CHANNELS 3 Xrotation Yrotation Zrotation
										JOINT mixamorig:LeftHandThumb3
										{
											OFFSET 6.063080 -3.500519 3.500518
											CHANNELS 3 Xrotation Yrotation Zrotation
											JOINT mixamorig:LeftHandThumb4
											{
												OFFSET 4.793182 -2.767334 2.767349
												CHANNELS 3 Xrotation Yrotation Zrotation
												End Site
												{
													OFFSET 0.101639 6.054260 1.275483
												}
											}
										}
									}
								}
								JOINT mixamorig:LeftHandIndex1
								{
									OFFSET 23.101074 -0.309540 4.992809
									CHANNELS 3 Xrotation Yrotation Zrotation
									JOINT mixamorig:LeftHandIndex2
									{
										OFFSET 6.226883 0.000000 0.000000
										CHANNELS 3 Xrotation Yrotation Zrotation
										JOINT mixamorig:LeftHandIndex3
										{
											OFFSET 6.094330 0.000000 0.000000
											CHANNELS 3 Xrotation Yrotation Zrotation
											JOINT mixamorig:LeftHandIndex4
											{
												OFFSET 5.482605 0.000000 0.000000
												CHANNELS 3 Xrotation Yrotation Zrotation
												End Site
												{
													OFFSET -1.427902 5.233032 0.797164
												}
											}
										}
									}
								}
								JOINT mixamorig:LeftHandRing1
								{
									OFFSET 22.299240 0.021149 -3.964172
									CHANNELS 3 Xrotation Yrotation Zrotation
									JOINT mixamorig:LeftHandRing2
									{
										OFFSET 6.321869 0.000000 0.000000
										CHANNELS 3 Xrotation Yrotation Zrotation
										JOINT mixamorig:LeftHandRing3
										{
											OFFSET 5.899796 0.000000 0.000000
											CHANNELS 3 Xrotation Yrotation Zrotation
											JOINT mixamorig:LeftHandRing4
											{
												OFFSET 6.517899 0.000000 0.000000
												CHANNELS 3 Xrotation Yrotation Zrotation
												End Site
												{
													OFFSET -1.637299 6.232208 0.980890
												}
											}
										}
									}
								}
								JOINT mixamorig:LeftHandPinky1
								{
									OFFSET 20.463791 -0.302338 -8.562233
									CHANNELS 3 Xrotation Yrotation Zrotation
									JOINT mixamorig:LeftHandPinky2
									{
										OFFSET 6.908646 0.000000 0.000000
										CHANNELS 3 Xrotation Yrotation Zrotation
										JOINT mixamorig:LeftHandPinky3
										{
											OFFSET 4.622849 0.000000 0.000000
											CHANNELS 3 Xrotation Yrotation Zrotation
											JOINT mixamorig:LeftHandPinky4
											{
												OFFSET 5.216080 0.000000 0.000000
												CHANNELS 3 Xrotation Yrotation Zrotation
												End Site
												{
													OFFSET -0.606308 5.116241 0.814926
												}
											}
										}
									}
								}
							}
						}
					}
				}
				JOINT mixamorig:RightShoulder
				{
					OFFSET -12.001300 18.284088 1.348900
					CHANNELS 3 Xrotation Yrotation Zrotation
					JOINT mixamorig:RightArm
					{
						OFFSET -25.308500 -0.751312 -5.164599
						CHANNELS 3 Xrotation Yrotation Zrotation
						JOINT mixamorig:RightForeArm
						{
							OFFSET -54.684429 0.000000 0.000000
							CHANNELS 3 Xrotation Yrotation Zrotation
							JOINT mixamorig:RightHand
							{
								OFFSET -55.150291 0.000000 0.000000
								CHANNELS 3 Xrotation Yrotation Zrotation
								JOINT mixamorig:RightHandMiddle1
								{
									OFFSET -23.317566 0.000000 0.000000
									CHANNELS 3 Xrotation Yrotation Zrotation
									JOINT mixamorig:RightHandMiddle2
									{
										OFFSET -6.378403 0.000000 0.000000
										CHANNELS 3 Xrotation Yrotation Zrotation
										JOINT mixamorig:RightHandMiddle3
										{
											OFFSET -6.148193 0.000000 0.000000
											CHANNELS 3 Xrotation Yrotation Zrotation
											JOINT mixamorig:RightHandMiddle4
											{
												OFFSET -6.583389 0.000000 0.000000
												CHANNELS 3 Xrotation Yrotation Zrotation
												End Site
												{
													OFFSET 1.171692 6.395905 1.029786
												}
											}
										}
									}
								}
								JOINT mixamorig:RightHandThumb1
								{
									OFFSET -7.190521 -3.860474 5.435846
									CHANNELS 3 Xrotation Yrotation Zrotation
									JOINT mixamorig:RightHandThumb2
									{
										OFFSET -6.567429 -3.791718 3.791708
										CHANNELS 3 Xrotation Yrotation Zrotation
										JOINT mixamorig:RightHandThumb3
										{
											OFFSET -6.062469 -3.500153 3.500166
											CHANNELS 3 Xrotation Yrotation Zrotation
											JOINT mixamorig:RightHandThumb4
											{
												OFFSET -4.792618 -2.767029 2.767022
												CHANNELS 3 Xrotation Yrotation Zrotation
												End Site
												{
													OFFSET -0.100327 6.053253 1.276754
												}
											}
										}
									}
								}
								JOINT mixamorig:RightHandIndex1
								{
									OFFSET -23.048981 -0.310791 4.992554
									CHANNELS 3 Xrotation Yrotation Zrotation
									JOINT mixamorig:RightHandIndex2
									{
										OFFSET -6.227539 0.000000 0.000000
										CHANNELS 3 Xrotation Yrotation Zrotation
										JOINT mixamorig:RightHandIndex3
										{
											OFFSET -6.095047 0.000000 0.000000
											CHANNELS 3 Xrotation Yrotation Zrotation
											JOINT mixamorig:RightHandIndex4
											{
												OFFSET -5.484772 0.000000 0.000000
												CHANNELS 3 Xrotation Yrotation Zrotation
												End Site
												{
													OFFSET 1.420593 5.237305 0.797056
												}
											}
										}
									}
								}
								JOINT mixamorig:RightHandRing1
								{
									OFFSET -22.246323 0.020569 -3.963762
									CHANNELS 3 Xrotation Yrotation Zrotation
									JOINT mixamorig:RightHandRing2
									{
										OFFSET -6.322128 0.000000 0.000000
										CHANNELS 3 Xrotation Yrotation Zrotation
										JOINT mixamorig:RightHandRing3
										{
											OFFSET -5.900024 0.000000 0.000000
											CHANNELS 3 Xrotation Yrotation Zrotation
											JOINT mixamorig:RightHandRing4
											{
												OFFSET -6.518356 0.000000 0.000000
												CHANNELS 3 Xrotation Yrotation Zrotation
												End Site
												{
													OFFSET 1.636398 6.232697 0.982186
												}
											}
										}
									}
								}
								JOINT mixamorig:RightHandPinky1
								{
									OFFSET -20.411011 -0.303314 -8.561701
									CHANNELS 3 Xrotation Yrotation Zrotation
									JOINT mixamorig:RightHandPinky2
									{
										OFFSET -6.907349 0.000000 0.000000
										CHANNELS 3 Xrotation Yrotation Zrotation
										JOINT mixamorig:RightHandPinky3
										{
											OFFSET -4.623840 0.000000 0.000000
											CHANNELS 3 Xrotation Yrotation Zrotation
											JOINT mixamorig:RightHandPinky4
											{
												OFFSET -5.218353 0.000000 0.000000
												CHANNELS 3 Xrotation Yrotation Zrotation
												End Site
												{
													OFFSET 0.602097 5.118835 0.816273
												}
											}
										}
									}
								}
							}
						}
					}
				}
			}
		}
	}
	JOINT mixamorig:LeftUpLeg
	{
		OFFSET 18.168400 -13.561905 -0.039000
		CHANNELS 3 Xrotation Yrotation Zrotation
		JOINT mixamorig:LeftLeg
		{
			OFFSET 0.577358 -80.825211 -3.695000
			CHANNELS 3 Xrotation Yrotation Zrotation
			JOINT mixamorig:LeftFoot
			{
				OFFSET -0.577356 -83.370262 -6.520700
				CHANNELS 3 Xrotation Yrotation Zrotation
				JOINT mixamorig:LeftToeBase
				{
					OFFSET 0.750401 -20.798306 25.135401
					CHANNELS 3 Xrotation Yrotation Zrotation
					JOINT mixamorig:LeftToe_End
					{
						OFFSET -0.000500 0.001200 19.917799
						CHANNELS 3 Xrotation Yrotation Zrotation
						End Site
						{
							OFFSET 0.000000 19.917805 0.000000
						}
					}
				}
			}
		}
	}
	JOINT mixamorig:RightUpLeg
	{
		OFFSET -18.162500 -13.585098 -0.041000
		CHANNELS 3 Xrotation Yrotation Zrotation
		JOINT mixamorig:RightLeg
		{
			OFFSET -0.595024 -80.945297 -3.631900
			CHANNELS 3 Xrotation Yrotation Zrotation
			JOINT mixamorig:RightFoot
			{
				OFFSET 0.595024 -83.218193 -6.561200
				CHANNELS 3 Xrotation Yrotation Zrotation
				JOINT mixamorig:RightToeBase
				{
					OFFSET -0.753601 -20.807106 25.115000
					CHANNELS 3 Xrotation Yrotation Zrotation
					JOINT mixamorig:RightToe_End
					{
						OFFSET 0.000299 0.001700 19.918200
						CHANNELS 3 Xrotation Yrotation Zrotation
						End Site
						{
							OFFSET 0.000000 19.918203 0.000000
						}
					}
				}
			}
		}
	}
}
MOTION
Frames: 4
Frame Time: 0.033333
1.850476 193.481186 -68.974922 -2.711789 0.825771 -0.074760 -1.861254 -0.055325 0.852565 -0.858689 -0.024819 0.293678 -0.858799 -0.021371 0.293792 0.482083 0.550097 -0.545236 3.577640 1.635100 1.603958 -0.000000 0.000000 -0.000000 -0.000000 0.000000 -0.000000 -0.000000 0.000000 -0.000000 0.558536 1.931311 -9.038138 16.271257 -33.622166 -58.540506 -0.000005 -36.165315 0.000010 -13.089305 25.405555 -5.899333 -0.139873 1.100187 -23.376864 0.690319 3.009823 -25.829547 0.020200 0.528170 -4.380988 -0.000002 0.000000 -0.000002 -9.349066 -9.562430 9.044110 3.442379 34.771393 -6.498765 -1.084054 0.097204 2.470748 0.000000 0.000000 -0.000000 -0.295743 0.485362 -20.871485 0.357203 2.192982 -18.500571 0.006479 0.299427 -2.482029 0.000000 -0.000001 0.000000 1.177060 4.005393 -25.964107 0.643383 2.911025 -24.920881 0.047055 0.805299 -6.688636 0.000000 -0.000001 0.000001 1.528243 4.405818 -32.622954 0.448705 -1.617935 -21.157530 0.006489 0.299442 -2.482033 -0.000003 0.000001 0.000002 0.514687 -4.266565 8.579572 1.190504 34.553521 62.838881 -0.000000 15.324626 0.000014 -0.384326 -6.778139 12.997065 0.222045 -1.991821 24.288957 0.873534 -3.379184 28.980534 0.094321 -1.105165 9.116278 0.000000 -0.000001 -0.000003 7.419456 -17.533080 0.457803 3.747719 -11.429409 -0.806488 -0.338545 -1.563770 -4.823924 -0.000002 0.000001 0.000003 -2.365278 3.070695 27.052412 0.391122 -2.303358 19.272084 0.011280 -0.396686 3.256846 0.000002 0.000001 0.000003 2.003560 -5.954177 23.982707 0.453208 -2.473632 20.761644 0.024529 -1.116285 9.114393 -0.000003 -0.000002 -0.000000 0.139454 -1.992957 27.898874 0.535659 -2.680858 22.595347 0.124254 -1.311237 10.825707 0.000001 -0.000003 -0.000000 -11.780324 11.276894 9.842236 30.694276 6.523015 1.855182 -15.180531 2.696739 -10.222439 -0.000067 -0.000002 -0.000001 -0.000000 0.000002 0.000000 -13.065315 -11.966745 -9.628719 31.993982 -1.345439 0.240218 -16.179747 -1.096855 6.309490 -0.003287 0.000009 0.000001 0.000000 -0.000000 -0.000000 
1.842207 193.484970 -68.954124 -2.705423 0.822379 -0.090844 -1.866833 -0.054145 0.860675 -0.862040 -0.024121 0.297936 -0.862145 -0.020681 0.298055 0.483716 0.548934 -0.543543 3.592742 1.633092 1.594785 0.000000 0.000000 0.000000 0.000000 0.000000 0.000000 0.000000 0.000000 0.000000 0.558243 1.933331 -9.032132 16.263816 -33.626268 -58.556250 -0.000011 -36.150545 -0.000012 -13.067573 25.417591 -5.926012 -0.139588 1.101048 -23.379229 0.690398 3.010019 -25.831277 0.020205 0.528167 -4.380976 -0.000001 0.000001 -0.000001 -9.346819 -9.564327 9.041931 3.437823 34.762074 -6.496368 -1.085251 0.092422 2.471713 0.000002 0.000001 0.000001 -0.298300 0.478530 -20.870983 0.357210 2.192984 -18.500571 0.006483 0.299436 -2.482015 -0.000005 -0.000000 0.000001 1.179011 4.009241 -25.966851 0.643530 2.911334 -24.923842 0.046971 0.804558 -6.682461 0.000001 0.000002 -0.000001 1.527900 4.405348 -32.619679 0.448594 -1.618228 -21.155042 0.006488 0.299435 -2.482037 0.000000 0.000001 -0.000001 0.514885 -4.267275 8.582608 1.181077 34.537511 62.842146 -0.000000 15.319395 -0.000011 -0.545408 -6.786664 13.301561 0.219467 -1.985724 24.279767 0.873725 -3.379518 28.983689 0.094203 -1.104483 9.110619 0.000002 0.000003 -0.000002 7.422151 -17.540901 0.451215 3.747713 -11.429409 -0.806487 -0.338765 -1.563060 -4.823973 -0.000002 -0.000001 0.000001 -2.364845 3.070099 27.051357 0.391131 -2.303340 19.271983 0.011268 -0.396673 3.256682 0.000001 -0.000005 -0.000004 2.004462 -5.955560 23.987022 0.453156 -2.473501 20.760471 0.024517 -1.116263 9.114181 -0.000006 0.000001 0.000005 0.140416 -1.995101 27.904762 0.535406 -2.680248 22.589845 0.124316 -1.311553 10.828317 0.000000 -0.000000 -0.000000 -11.791342 11.285632 9.870150 30.695263 6.511078 1.847133 -15.180814 2.697180 -10.219872 -0.000872 0.000002 0.000001 0.000000 0.000000 -0.000000 -13.056165 -11.959524 -9.597469 31.976094 -1.371040 0.233171 -16.171052 -1.097098 6.314211 -0.003181 0.000000 0.000001 0.000000 0.000000 -0.000000 
1.833989 193.480560 -68.932457 -2.692788 0.816088 -0.111123 -1.874654 -0.051547 0.869816 -0.867541 -0.022659 0.302942 -0.867638 -0.019221 0.303070 0.492040 0.546978 -0.540544 3.621476 1.630572 1.578732 0.000000 0.000000 -0.000000 0.000000 0.000000 -0.000000 0.000000 0.000000 -0.000000 0.557415 1.916981 -9.012500 16.251998 -33.620145 -58.598836 0.000016 -36.140297 0.000005 -13.068154 25.419768 -5.916025 -0.138513 1.103302 -23.376256 0.689881 3.008949 -25.821438 0.020196 0.528170 -4.380990 -0.000003 -0.000002 0.000000 -9.335301 -9.580287 9.057823 3.437955 34.762378 -6.496438 -1.086622 0.087020 2.472853 0.000000 0.000002 -0.000001 -0.301676 0.469335 -20.868873 0.357209 2.192988 -18.500565 0.006485 0.299425 -2.482038 -0.000000 0.000000 -0.000003 1.177424 4.005943 -25.968374 0.643658 2.911611 -24.926232 0.046938 0.804280 -6.680153 0.000000 0.000000 0.000004 1.527802 4.405310 -32.616257 0.448564 -1.618334 -21.154095 0.006483 0.299437 -2.482028 -0.000002 -0.000002 -0.000003 0.515574 -4.272112 8.593522 1.212160 34.584731 62.831798 0.000011 15.343784 -0.000024 -0.331326 -6.777583 12.888435 0.220313 -1.988007 24.289565 0.873757 -3.379553 28.984027 0.094204 -1.104449 9.110361 0.000004 -0.000002 -0.000002 7.425917 -17.551221 0.443154 3.747721 -11.429409 -0.806487 -0.340762 -1.556439 -4.824408 0.000002 -0.000003 -0.000002 -2.362788 3.067405 27.045830 0.391132 -2.303369 19.272203 0.011271 -0.396661 3.256662 0.000003 0.000001 0.000002 2.005211 -5.957721 23.983463 0.452805 -2.472559 20.752256 0.024495 -1.116063 9.112587 0.000002 -0.000003 -0.000001 0.137842 -1.990513 27.910436 0.535622 -2.680756 22.594486 0.124329 -1.311658 10.829200 0.000000 -0.000001 -0.000001 -11.813777 11.298999 9.915316 30.714620 6.492946 1.828400 -15.194077 2.699865 -10.217253 -0.001706 0.000009 -0.000001 -0.000000 0.000000 -0.000000 -13.050369 -11.946785 -9.557588 31.970039 -1.378831 0.219058 -16.178189 -1.097514 6.318730 -0.002752 0.000000 0.000002 0.000000 -0.000002 0.000000 
1.853307 193.479584 -68.908974 -2.710431 0.825041 -0.079813 -1.859739 -0.053353 0.849920 -0.860354 -0.023803 0.293237 -0.860460 -0.020347 0.293364 0.500478 0.545570 -0.542594 3.634793 1.620995 1.582482 -0.000000 0.000000 -0.000000 -0.000000 0.000000 -0.000000 -0.000000 0.000000 -0.000000 0.557020 1.917520 -9.004152 16.233280 -33.629813 -58.615652 -0.000001 -36.133886 0.000027 -13.043730 25.409658 -5.931629 -0.137036 1.106977 -23.378534 0.689377 3.007887 -25.811713 0.020206 0.528173 -4.380994 0.000005 0.000002 -0.000000 -9.327099 -9.597563 9.056734 3.443892 34.774460 -6.499590 -1.087997 0.081547 2.473968 0.000000 -0.000001 -0.000000 -0.302541 0.466885 -20.867155 0.357302 2.193266 -18.503047 0.006478 0.299432 -2.482012 -0.000000 0.000000 0.000001 1.174727 4.000715 -25.962118 0.644284 2.912948 -24.938569 0.047009 0.804913 -6.685451 -0.000001 -0.000002 -0.000001 1.528707 4.406774 -32.613416 0.448785 -1.617731 -21.159433 0.006488 0.299446 -2.482029 0.000000 -0.000001 -0.000000 0.515982 -4.278687 8.600494 1.215773 34.593310 62.820303 -0.000001 15.349351 0.000005 -0.483945 -6.748637 13.078501 0.219651 -1.986610 24.291438 0.873155 -3.378498 28.973936 0.094237 -1.104669 9.112218 0.000000 -0.000001 0.000002 7.425281 -17.550576 0.442561 3.747710 -11.429410 -0.806487 -0.340115 -1.558580 -4.824261 -0.000002 0.000001 0.000001 -2.358497 3.059990 27.040792 0.391247 -2.303698 19.275106 0.011271 -0.396666 3.256639 0.000002 -0.000000 -0.000002 2.001782 -5.951421 23.974413 0.452856 -2.472701 20.753520 0.024445 -1.115778 9.110109 -0.000001 0.000000 0.000002 0.141316 -1.997311 27.913726 0.534699 -2.678515 22.574562 0.124202 -1.310998 10.823707 -0.000003 0.000000 0.000001 -11.762643 11.286307 9.856782 30.687746 6.507796 1.846439 -15.194063 2.699458 -10.222572 -0.001782 0.000002 -0.000001 0.000000 0.000000 0.000000 -13.040077 -11.969387 -9.620603 31.981299 -1.331184 0.237947 -16.193677 -1.097323 6.310767 -0.003519 0.000003 -0.000002 0.000000 -0.000002 -0.000000 
